<svg width="26" height="26" viewBox="0 0 26 26" fill="none" xmlns="http://www.w3.org/2000/svg">
<path d="M1 3C1 1.89543 1.89543 1 3 1H23C24.1046 1 25 1.89543 25 3V23C25 24.1046 24.1046 25 23 25H3C1.89543 25 1 24.1046 1 23V3Z" fill="white" fill-opacity="0.05"/>
<path d="M5 6.85016V8.53583C5 8.79642 5.21173 9 5.46417 9H9.53583C9.79642 9 10 8.78827 10 8.53583V4.46417C10 4.20358 9.78827 4 9.53583 4H9.36482C9.27524 4 9.19381 4.02443 9.12052 4.06515L5.21173 6.45114C5.08143 6.54072 5 6.69544 5 6.85016Z" fill="#CCDADE"/>
<path d="M21 4.551V9.2535C21 9.5575 20.7641 9.795 20.4828 9.795H17.5699C17.2795 9.795 17.0526 10.042 17.0526 10.3365V22.4585C17.0526 22.7625 16.8167 23 16.5354 23H11.5172C11.2269 23 11 22.753 11 22.4585V4.5415C11 4.2375 11.2359 4 11.5172 4H20.4828C20.7731 4.0095 21 4.247 21 4.551Z" fill="#7095A0"/>
<path d="M3 1.5H23V0.5H3V1.5ZM24.5 3V23H25.5V3H24.5ZM23 24.5H3V25.5H23V24.5ZM1.5 23V3H0.5V23H1.5ZM3 24.5C2.17157 24.5 1.5 23.8284 1.5 23H0.5C0.5 24.3807 1.61929 25.5 3 25.5V24.5ZM24.5 23C24.5 23.8284 23.8284 24.5 23 24.5V25.5C24.3807 25.5 25.5 24.3807 25.5 23H24.5ZM23 1.5C23.8284 1.5 24.5 2.17157 24.5 3H25.5C25.5 1.61929 24.3807 0.5 23 0.5V1.5ZM3 0.5C1.61929 0.5 0.5 1.61929 0.5 3H1.5C1.5 2.17157 2.17157 1.5 3 1.5V0.5Z" fill="#7095A0"/>
</svg>
